<?xml version="1.0" encoding="UTF-8" standalone="no"?>
<!DOCTYPE svg PUBLIC "-//W3C//DTD SVG 1.1//EN"
 "http://www.w3.org/Graphics/SVG/1.1/DTD/svg11.dtd">
<!-- Generated by graphviz version 2.38.0 (20140413.2041)
 -->
<!-- Title: g Pages: 1 -->
<svg width="220pt" height="116pt"
 viewBox="0.00 0.00 219.84 116.00" xmlns="http://www.w3.org/2000/svg" xmlns:xlink="http://www.w3.org/1999/xlink">
<g id="graph0" class="graph" transform="scale(1 1) rotate(0) translate(4 112)">
<title>g</title>
<polygon fill="white" stroke="none" points="-4,4 -4,-112 215.841,-112 215.841,4 -4,4"/>
<!-- bootstrap2 -->
<g id="node1" class="node"><title>bootstrap2</title>
<ellipse fill="none" stroke="black" cx="50.0456" cy="-90" rx="50.0912" ry="18"/>
<text text-anchor="middle" x="50.0456" y="-86.3" font-family="Times New Roman,serif" font-size="14.00">bootstrap2</text>
</g>
<!-- jquery -->
<g id="node2" class="node"><title>jquery</title>
<ellipse fill="none" stroke="black" cx="107.046" cy="-18" rx="33.2948" ry="18"/>
<text text-anchor="middle" x="107.046" y="-14.3" font-family="Times New Roman,serif" font-size="14.00">jquery</text>
</g>
<!-- bootstrap2&#45;&gt;jquery -->
<g id="edge1" class="edge"><title>bootstrap2&#45;&gt;jquery</title>
<path fill="none" stroke="black" d="M63.5538,-72.411C70.7553,-63.567 79.7421,-52.5305 87.6742,-42.7894"/>
<polygon fill="black" stroke="black" points="90.4264,-44.9525 94.0267,-34.9881 84.9983,-40.5325 90.4264,-44.9525"/>
</g>
<!-- datatables -->
<g id="node3" class="node"><title>datatables</title>
<ellipse fill="none" stroke="black" cx="165.046" cy="-90" rx="46.5926" ry="18"/>
<text text-anchor="middle" x="165.046" y="-86.3" font-family="Times New Roman,serif" font-size="14.00">datatables</text>
</g>
<!-- datatables&#45;&gt;jquery -->
<g id="edge2" class="edge"><title>datatables&#45;&gt;jquery</title>
<path fill="none" stroke="black" d="M151.3,-72.411C143.973,-63.567 134.828,-52.5305 126.757,-42.7894"/>
<polygon fill="black" stroke="black" points="129.368,-40.4553 120.293,-34.9881 123.978,-44.9214 129.368,-40.4553"/>
</g>
</g>
</svg>
